<svg width="84" height="84" viewBox="0 0 84 84" fill="none" xmlns="http://www.w3.org/2000/svg">
<path d="M0 42C0 65.196 18.804 84 42 84C65.196 84 84 65.196 84 42C84 18.804 65.196 0 42 0C18.804 0 0 18.804 0 42Z" fill="#25D366"/>
<path fill-rule="evenodd" clip-rule="evenodd" d="M56.7 27.0375C52.7625 23.1 47.5125 21 42 21C30.45 21 21 30.45 21 42C21 45.675 22.05 49.35 23.8875 52.5L21 63L32.025 60.1125C35.175 61.6875 38.5875 62.7375 42 62.7375C53.55 62.7375 63 53.2875 63 41.7375C63 36.225 60.6375 30.975 56.7 27.0375ZM42 59.325C38.85 59.325 35.7 58.5375 33.075 56.9625L32.55 56.7L25.9875 58.5375L27.825 52.2375L27.3 51.45C25.4625 48.5625 24.675 45.4125 24.675 42.2625C24.675 32.8125 32.55 24.9375 42 24.9375C46.725 24.9375 50.925 26.775 54.3375 29.925C57.75 33.3375 59.325 37.5375 59.325 42.2625C59.325 51.45 51.7125 59.325 42 59.325ZM51.45 46.2C50.925 45.9375 48.3 44.625 47.775 44.625C47.25 44.3625 46.9875 44.3625 46.725 44.8875C46.4625 45.4125 45.4125 46.4625 45.15 46.9875C44.8875 47.25 44.625 47.25 44.1 47.25C43.575 46.9875 42 46.4625 39.9 44.625C38.325 43.3125 37.275 41.475 37.0125 40.95C36.75 40.425 37.0125 40.1625 37.275 39.9C37.5375 39.6375 37.8 39.375 38.0625 39.1125C38.325 38.85 38.325 38.5875 38.5875 38.325C38.85 38.0625 38.5875 37.8 38.5875 37.5375C38.5875 37.275 37.5375 34.65 37.0125 33.6C36.75 32.8125 36.225 32.8125 35.9625 32.8125C35.7 32.8125 35.4375 32.8125 34.9125 32.8125C34.65 32.8125 34.125 32.8125 33.6 33.3375C33.075 33.8625 31.7625 35.175 31.7625 37.8C31.7625 40.425 33.6 42.7875 33.8625 43.3125C34.125 43.575 37.5375 49.0875 42.7875 51.1875C47.25 53.025 48.0375 52.5 49.0875 52.5C50.1375 52.5 52.2375 51.1875 52.5 50.1375C53.025 48.825 53.025 47.775 52.7625 47.775C52.5 46.4625 51.975 46.4625 51.45 46.2Z" fill="white"/>
</svg>
